<svg width="315" height="289" viewBox="0 0 315 289" fill="none" xmlns="http://www.w3.org/2000/svg">
<path fill-rule="evenodd" clip-rule="evenodd" d="M3.6845 37.7464C-0.734726 46.0912 -0.418821 56.1493 4.51536 64.2003L134.472 276.249C144.892 293.25 169.593 293.25 180.013 276.249L310.205 63.8164C315.302 55.5 315.46 45.0665 310.616 36.6L297.371 13.4453C292.614 5.13046 283.768 0 274.189 0H39.7513C29.8603 0 20.7792 5.46674 16.1501 14.2078L3.6845 37.7464Z" fill="#FF934F"/>
<ellipse cx="158.56" cy="127.442" rx="37.386" ry="37.8558" fill="white"/>
<path d="M142.247 79.5041C149.46 66.8825 167.66 66.8825 174.872 79.5041V79.5041C182.03 92.0295 172.986 107.615 158.56 107.615V107.615C144.133 107.615 135.089 92.0295 142.247 79.5041V79.5041Z" fill="white"/>
</svg>
