<svg width="43" height="41" viewBox="0 0 43 41" fill="none" xmlns="http://www.w3.org/2000/svg">
<path d="M5.23175 11.68C5.54132 11.1805 5.98464 10.7642 6.51845 10.4717C7.05226 10.1793 7.65834 10.0207 8.27758 10.0114H31.2109L32.2501 6.24048C32.3551 5.87646 32.5893 5.55627 32.9147 5.33206C33.24 5.10786 33.6373 4.99284 34.0417 5.00574H37.6251C38.1003 5.00574 38.556 5.18153 38.892 5.49445C39.228 5.80737 39.4167 6.23177 39.4167 6.6743C39.4167 7.11683 39.228 7.54124 38.892 7.85416C38.556 8.16707 38.1003 8.34287 37.6251 8.34287H35.4034L30.4584 25.4623C30.3534 25.8263 30.1192 26.1465 29.7938 26.3707C29.4685 26.595 29.0712 26.71 28.6667 26.6971H12.5417C12.2109 26.6961 11.8868 26.6099 11.6053 26.4479C11.3238 26.2859 11.0961 26.0545 10.9472 25.7794L5.0705 14.8336C4.81578 14.3364 4.6972 13.7882 4.72534 13.2379C4.75348 12.6876 4.92746 12.1524 5.23175 11.68ZM13.6526 23.3599H27.3051L30.2255 13.3486H8.27758L13.6526 23.3599Z" fill="white"/>
<path d="M29.5625 35.04C28.0782 35.04 26.875 33.9194 26.875 32.5371C26.875 31.1549 28.0782 30.0343 29.5625 30.0343C31.0468 30.0343 32.25 31.1549 32.25 32.5371C32.25 33.9194 31.0468 35.04 29.5625 35.04Z" fill="white"/>
<path d="M11.6458 35.04C10.1615 35.04 8.95825 33.9194 8.95825 32.5371C8.95825 31.1549 10.1615 30.0343 11.6458 30.0343C13.13 30.0343 14.3333 31.1549 14.3333 32.5371C14.3333 33.9194 13.13 35.04 11.6458 35.04Z" fill="white"/>
</svg>
